<?xml version="1.0" encoding="utf-8"?>
<!-- Generator: Adobe Illustrator 16.0.0, SVG Export Plug-In . SVG Version: 6.00 Build 0)  -->
<!DOCTYPE svg PUBLIC "-//W3C//DTD SVG 1.1//EN" "http://www.w3.org/Graphics/SVG/1.1/DTD/svg11.dtd">
<svg version="1.1" id="Layer_1" xmlns="http://www.w3.org/2000/svg" xmlns:xlink="http://www.w3.org/1999/xlink" x="0px" y="0px"
	 width="320.136px" height="320.143px" viewBox="0 260.992 320.136 320.143" enable-background="new 0 260.992 320.136 320.143"
	 xml:space="preserve">
<path id="Icon_awesome-expand-arrows-alt" fill="#797979" d="M162.726,460.644v40.742c0,4.765-3.862,8.628-8.627,8.628h-40.862
	c-4.765,0-8.628-3.862-8.629-8.627c0-0.04,0.001-0.08,0.001-0.121c-0.019-2.292,0.888-4.496,2.517-6.111l13.181-13.181
	L81.363,443.03l-38.944,39.544L55.6,495.634c3.165,3.367,3.165,8.616,0,11.982c-1.599,1.653-3.813,2.564-6.111,2.518H8.628
	c-4.765,0-8.628-3.864-8.628-8.628l0,0v-40.742c0.065-4.784,3.963-8.628,8.747-8.628c2.3,0.064,4.487,1.008,6.111,2.638
	l13.181,13.181l38.944-39.064L28.04,389.586l-13.181,13.181c-3.368,3.166-8.616,3.166-11.983,0
	c-1.628-1.615-2.535-3.818-2.516-6.111v-40.741c-0.067-4.698,3.688-8.561,8.386-8.627c0.081-0.001,0.161-0.001,0.242,0h40.262
	c4.831,0,8.748,3.915,8.748,8.747c-0.032,2.282-0.932,4.468-2.517,6.111l-13.181,13.181l38.944,38.944l39.063-39.542l-13.181-11.982
	c-3.375-3.457-3.31-8.996,0.147-12.37c1.627-1.589,3.81-2.482,6.084-2.489h40.741c4.784,0,8.681,3.844,8.747,8.628l0,0v40.742
	c0,4.831-3.916,8.747-8.747,8.747c-2.332,0.038-4.579-0.87-6.231-2.516l-13.181-13.181L95.742,428.65l38.945,39.063l13.181-13.181
	c3.342-3.226,8.639-3.226,11.982,0C161.577,456.111,162.611,458.308,162.726,460.644z"/>
</svg>
